<svg
  width="128"
  height="128"
  viewBox="0 0 36 36"
  fill="none"
  xmlns="http://www.w3.org/2000/svg"
>
<rect x="8" y="1" width="19" height="2" rx="1" fill="#F9C926" />
<path
    d="M8.1004 2H26.5C26.4712 2.37282 26.2261 3.49883 26.275 4.10443L26.5 4.5C26.11 8.47692 26.1444 11 25.9444 13C25.4444 18 24.9444 18.5 23.7867 19.484C23.4735 19.6264 22.8984 19.7213 22.5 19.7692C22.2222 27 23 30 24.5 35H12C13.8056 28.5 13.5648 22.0128 13.5 19.7692H12.75C12.2562 19.7692 11.8234 19.6832 11.4409 19.484C10.6774 19.0864 9.92858 18.5 9.50001 15.5C9.00001 12 9.00002 9.97692 8.1004 2.5C8.06719 2.00646 8.13417 2.52196 8.1004 2Z"
    fill="#F9C926"
  />
<path
    d="M22.5 19.7692H18.0278M22.5 19.7692L19.6111 3.52308M22.5 19.7692L23.2505 3.52308M22.5 19.7692C22.8984 19.7213 23.4735 19.6264 23.7867 19.484M22.5 19.7692C22.2222 27 23 30 24.5 35H12C13.8056 28.5 13.5648 22.0128 13.5 19.7692M8.1004 2.5C8.06719 2.00646 8.13417 2.52196 8.1004 2H26.5C26.4599 2.51931 26 4.5 26.5 4.5M8.1004 2.5C9.00002 9.97692 9.00001 12 9.50001 15.5M8.1004 2.5L10.6389 3.52308M26.5 4.5L25.9444 3.52308M26.5 4.5C26.11 8.47692 26.1444 11 25.9444 13M9.50001 15.5L10.6389 3.52308M9.50001 15.5C9.92858 18.5 10.6774 19.0864 11.4409 19.484M10.6389 3.52308L11.4409 19.484M10.6389 3.52308H13.8056M11.4409 19.484C11.8234 19.6832 12.2562 19.7692 12.75 19.7692C12.75 19.7692 13.0878 19.7692 13.5 19.7692M11.4409 19.484L13.8056 3.52308M13.8056 3.52308C13.8056 3.52308 13.5 13.4247 13.5 19.7692M13.8056 3.52308H16.4444M13.5 19.7692C14.5305 13.4247 16.4444 3.52308 16.4444 3.52308M13.5 19.7692C15.1489 19.7692 18.0278 19.7692 18.0278 19.7692M16.4444 3.52308L18.0278 19.7692M16.4444 3.52308H19.6111M18.0278 19.7692L19.6111 3.52308M19.6111 3.52308H23.2505M23.2505 3.52308L23.7867 19.484M23.2505 3.52308H25.9444M23.7867 19.484L25.9444 3.52308M23.7867 19.484C24.9444 18.5 25.4444 18 25.9444 13M25.9444 3.52308V13"
    stroke="#F9C926"
    stroke-width="0.5"
  />
<path
    d="M10 17.7191L11.931 2M10 17.7191L8 2H11.931M10 17.7191C11.244 18.1887 16.676 18.5 25.8528 17.7191M11.931 2L13.2414 18L15.2069 2M11.931 2H15.2069M15.2069 2L17.1724 18L19.1379 2M15.2069 2H19.1379M19.1379 2L21.1034 18L23.6558 2M19.1379 2H23.6558M23.6558 2L24.3904 17.7191L27 2H23.6558Z"
    stroke="#1B1B1A"
    stroke-width="0.5"
  />
</svg>
